<svg width="131" height="131" viewBox="0 0 131 131" fill="none" xmlns="http://www.w3.org/2000/svg">
<path d="M53.561 89.5703C53.595 88.5881 53.5951 87.3069 53.5615 85.7265C53.5572 84.1471 53.5292 82.403 53.4774 80.4943C53.4257 78.5855 53.3633 76.5572 53.2904 74.4093C53.2174 72.2615 53.1293 70.128 53.0259 68.0089C52.9225 65.8898 52.8165 63.8451 52.7079 61.8749C52.6298 59.8758 52.545 58.0702 52.4536 56.4581C52.2975 54.1584 52.032 52.4659 51.6572 51.3805C51.2823 50.2952 50.6241 49.7366 49.6826 49.7047C48.7999 49.6749 48.2026 49.908 47.8909 50.404C47.6085 50.901 47.4251 51.5205 47.3405 52.2626C47.2853 53.0056 47.2423 53.8236 47.2114 54.7165C47.2109 55.5806 47.0507 56.3797 46.7307 57.1138C46.4401 57.8489 45.9036 58.4565 45.121 58.9366C44.3385 59.4167 43.1528 59.6298 41.5639 59.5761C40.4458 59.5383 39.5055 59.0446 38.743 58.0952C37.9815 57.1159 37.6317 55.7334 37.6935 53.9477C37.78 51.4476 38.5939 49.2106 40.1352 47.2365C41.648 45.2317 43.7532 43.5597 46.4508 42.2207C49.1494 40.8519 52.3811 39.8289 56.1457 39.1516C59.9104 38.4744 64.073 38.2129 68.6337 38.3671C71.8998 38.4776 74.9028 38.9516 77.6429 39.7892C80.384 40.597 82.7323 41.6895 84.6878 43.0667C86.6738 44.4151 88.2096 46.0016 89.2953 47.8261C90.3821 49.6209 90.8894 51.56 90.8173 53.6433C90.7359 55.9946 89.9814 58.2187 88.5537 60.3158C87.126 62.413 85.1896 64.3141 82.7445 66.0192C80.3288 67.7254 77.4941 69.1939 74.2406 70.4247C70.988 71.6258 67.5099 72.5362 63.8062 73.1559C62.7702 73.2996 62.2331 73.9221 62.195 75.0233C62.1692 75.7674 62.1809 76.7064 62.23 77.8403C62.3096 78.9455 62.3724 80.1097 62.4185 81.3329C62.4939 82.5572 62.5552 83.766 62.6022 84.9595C62.6787 86.154 62.701 87.2125 62.6691 88.1352C62.6114 89.8018 62.1877 90.9794 61.3979 91.6678C60.6082 92.3562 59.463 92.6751 57.9624 92.6243C56.55 92.5766 55.4554 92.2863 54.6785 91.7535C53.9005 91.2504 53.528 90.5227 53.561 89.5703ZM81.6364 54.6291C81.6714 53.6171 81.2782 52.6354 80.4569 51.684C79.6355 50.7325 78.5163 49.8752 77.0993 49.1122C75.6822 48.3491 74.0247 47.7269 72.1265 47.2456C70.2578 46.7652 68.2789 46.4897 66.1898 46.4191C65.16 46.3843 64.2905 46.3996 63.5812 46.465C62.9024 46.5016 62.3539 46.6023 61.9358 46.7669C61.5177 46.9315 61.2152 47.1597 61.0284 47.4513C60.872 47.7142 60.7861 48.0689 60.7706 48.5153C60.7603 48.8129 60.7802 49.5138 60.8304 50.618C60.8816 51.6925 60.956 52.9465 61.0537 54.38C61.1513 55.8136 61.2464 57.3215 61.3389 58.9039C61.4619 60.4575 61.59 61.8623 61.7233 63.1183C61.7796 64.0439 61.8762 64.658 62.013 64.9606C62.1793 65.2642 62.4389 65.422 62.792 65.4339C63.7924 65.4678 64.9456 65.3429 66.2516 65.0593C67.5586 64.7459 68.8987 64.3293 70.2717 63.8096C71.6753 63.2612 73.0372 62.6368 74.3576 61.9365C75.7085 61.2074 76.9133 60.4437 77.9719 59.6451C79.0611 58.8179 79.9295 57.9831 80.5773 57.1409C81.2555 56.2699 81.6086 55.4326 81.6364 54.6291Z" fill="#DA4E00"/>
<path d="M113.864 66.5963L130.047 69.3633L128.519 78.2981C128.22 80.0455 127.583 81.3518 126.606 82.217C125.642 83.1 124.309 83.396 122.607 83.105C120.935 82.8192 119.762 82.0869 119.088 80.9081C118.426 79.7472 118.242 78.3082 118.536 76.5911L119.541 70.7106L113.342 69.6505L113.864 66.5963ZM125.811 77.6708L126.79 71.9499L122.277 71.1782L121.298 76.8992C121.163 77.6894 121.236 78.3587 121.518 78.9073C121.812 79.4737 122.339 79.8219 123.099 79.9518C124.603 80.209 125.507 79.4487 125.811 77.6708Z" fill="#DA4E00"/>
<path d="M109.855 83.4056L124.854 90.082L123.584 92.9339L108.585 86.2575L109.855 83.4056Z" fill="#DA4E00"/>
<path d="M110.368 112.042L97.5856 101.629L99.119 99.7462L115.166 99.964L105.467 92.0631L107.366 89.7324L120.095 100.102L117.816 102.898L103.521 102.617L112.252 109.729L110.368 112.042Z" fill="#DA4E00"/>
<path d="M88.3819 107.156C90.5507 105.949 92.7388 105.649 94.9462 106.256C97.1477 106.883 98.8406 108.261 100.025 110.389C101.224 112.544 101.489 114.717 100.82 116.906C100.158 119.109 98.7631 120.803 96.6348 121.987C94.466 123.194 92.2809 123.484 90.0794 122.857C87.872 122.25 86.1761 120.883 84.9917 118.754C83.7924 116.599 83.5236 114.42 84.1854 112.217C84.8547 110.027 86.2535 108.341 88.3819 107.156ZM89.7536 109.621C88.3527 110.401 87.4768 111.506 87.1259 112.936C86.769 114.387 86.9804 115.813 87.7599 117.214C88.547 118.628 89.6474 119.56 91.0612 120.008C92.4749 120.456 93.8756 120.294 95.263 119.522C96.664 118.743 97.5361 117.631 97.8795 116.187C98.2304 114.757 98.0161 113.342 97.2365 111.941C96.4495 110.526 95.3558 109.591 93.9555 109.136C92.5417 108.687 91.1411 108.849 89.7536 109.621Z" fill="#DA4E00"/>
<path d="M66.3035 116.749L65.8425 113.99L78.9112 111.807L81.6162 128L78.56 128.511L76.316 115.077L66.3035 116.749Z" fill="#DA4E00"/>
<path d="M63.4972 113.438L62.4844 129.824L59.3686 129.632L60.3815 113.245L63.4972 113.438Z" fill="#DA4E00"/>
<path d="M49.1459 119.657C48.9218 120.314 48.6404 120.804 48.3017 121.129C47.9435 121.462 47.5521 121.655 47.1276 121.705C46.6885 121.751 46.2429 121.696 45.7906 121.542C45.3383 121.388 44.9597 121.161 44.6547 120.861C44.3497 120.562 44.1575 120.17 44.0781 119.687C43.9937 119.218 44.0635 118.656 44.2876 117.999C44.5067 117.357 44.7953 116.87 45.1536 116.536C45.5069 116.217 45.8982 116.024 46.3277 115.959C46.7522 115.909 47.1906 115.96 47.6428 116.115C48.0951 116.269 48.481 116.499 48.8006 116.803C49.1006 117.117 49.2928 117.509 49.3772 117.977C49.4421 118.455 49.3649 119.016 49.1459 119.657Z" fill="#DA4E00"/>
<path d="M39.5895 106.702L29.1279 119.355L22.1421 113.58C20.7758 112.45 19.9609 111.246 19.6974 109.968C19.4122 108.692 19.8196 107.389 20.9198 106.058C22.0004 104.751 23.2196 104.099 24.5776 104.102C25.9139 104.107 27.2533 104.664 28.5958 105.774L33.1936 109.575L37.2014 104.728L39.5895 106.702ZM24.035 111.544L28.5081 115.243L31.4255 111.714L26.9524 108.016C26.3346 107.505 25.7177 107.235 25.1018 107.206C24.4642 107.178 23.8998 107.462 23.4086 108.056C22.4361 109.232 22.6449 110.395 24.035 111.544Z" fill="#DA4E00"/>
<path d="M27.0236 94.8681L13.7822 104.574L11.9367 102.057L25.178 92.3504L27.0236 94.8681Z" fill="#DA4E00"/>
<path d="M1.91535 81.1184L17.3077 75.2107L18.1777 77.4775L10.0049 91.2894L21.684 86.8068L22.7612 89.6133L7.43359 95.4961L6.14103 92.1283L13.4976 79.8682L2.9842 83.9033L1.91535 81.1184Z" fill="#DA4E00"/>
<path d="M17.1035 64.3955C17.0652 66.8771 16.2319 68.9225 14.6036 70.5316C12.9601 72.1251 10.9207 72.903 8.48534 72.8654C6.01912 72.8273 4.00493 71.9714 2.44277 70.2976C0.865189 68.6235 0.0952044 66.5688 0.13281 64.1334C0.17113 61.6518 1.01201 59.6142 2.65546 58.0208C4.28373 56.4117 6.31557 55.6259 8.75096 55.6635C11.2172 55.7016 13.2391 56.5577 14.8167 58.2317C16.3788 59.9055 17.1411 61.9601 17.1035 64.3955ZM14.2827 64.3519C14.3075 62.7489 13.7881 61.4381 12.7246 60.4195C11.646 59.3853 10.3051 58.8558 8.70205 58.8311C7.08359 58.8061 5.72702 59.2939 4.63234 60.2946C3.53766 61.2952 2.97807 62.5894 2.95355 64.177C2.9288 65.78 3.45588 67.091 4.53479 68.1098C5.59829 69.1283 6.93156 69.65 8.53461 69.6747C10.1531 69.6997 11.5095 69.2196 12.604 68.2344C13.6986 67.2337 14.2582 65.9396 14.2827 64.3519Z" fill="#DA4E00"/>
<path d="M19.7361 40.5368L22.3594 41.5099L17.7512 53.9326L2.3584 48.2227L3.43605 45.3175L16.2056 50.0544L19.7361 40.5368Z" fill="#DA4E00"/>
<path d="M23.9484 39.8314L10.2607 30.7656L11.9845 28.163L25.6722 37.2288L23.9484 39.8314Z" fill="#DA4E00"/>
<path d="M25.582 24.3637C25.1227 23.8438 24.8362 23.3564 24.7223 22.9016C24.6098 22.425 24.6368 21.9899 24.8031 21.596C24.981 21.192 25.249 20.8318 25.6071 20.5154C25.9653 20.199 26.35 19.9825 26.7613 19.866C27.1726 19.7495 27.6078 19.7764 28.0669 19.9468C28.5157 20.1056 28.9698 20.4449 29.4291 20.9648C29.8782 21.4731 30.159 21.9656 30.2715 22.4422C30.3738 22.9072 30.3469 23.3424 30.1907 23.7477C30.0244 24.1415 29.7622 24.4967 29.404 24.8131C29.0459 25.1295 28.6554 25.351 28.2326 25.4778C27.811 25.5828 27.3759 25.5558 26.927 25.397C26.4795 25.2164 26.0311 24.872 25.582 24.3637Z" fill="#DA4E00"/>
<path d="M41.4015 22.4745L35.5762 7.125L44.0508 3.90878C45.7083 3.27976 47.1576 3.16669 48.3987 3.56956C49.6488 3.95254 50.5802 4.95115 51.1928 6.56537C51.7944 8.15077 51.7584 9.53299 51.0846 10.712C50.4198 11.8712 49.2731 12.7598 47.6445 13.3779L42.0668 15.4947L44.2984 21.3751L41.4015 22.4745ZM44.8841 6.5605L39.4577 8.61987L41.0822 12.9004L46.5086 10.8411C47.258 10.5566 47.7977 10.154 48.1277 9.63303C48.4665 9.09221 48.4992 8.46148 48.2257 7.74085C47.6842 6.31399 46.5703 5.92054 44.8841 6.5605Z" fill="#DA4E00"/>
<path d="M57.977 17.3504L56.1455 1.03516L59.2477 0.686923L61.0792 17.0022L57.977 17.3504Z" fill="#DA4E00"/>
<path d="M82.549 2.36259L80.0197 18.6545L77.6205 18.282L69.702 4.32279L67.7829 16.6846L64.8124 16.2234L67.3311 0L70.8956 0.5534L77.8738 13.0328L79.6014 1.90497L82.549 2.36259Z" fill="#DA4E00"/>
<path d="M89.6333 23.8627C87.5011 22.5925 86.1433 20.8506 85.5599 18.6369C84.9977 16.4179 85.3399 14.2622 86.5865 12.1696C87.8488 10.0506 89.5948 8.73115 91.8245 8.21122C94.0622 7.67805 96.2272 8.03474 98.3197 9.28129C100.452 10.5515 101.799 12.2961 102.361 14.5151C102.945 16.7288 102.613 18.8819 101.367 20.9744C100.104 23.0934 98.3543 24.4195 96.1167 24.9527C93.887 25.4726 91.7258 25.1093 89.6333 23.8627ZM91.0771 21.4391C92.4545 22.2596 93.8497 22.4628 95.2628 22.0485C96.6971 21.6289 97.8245 20.7304 98.645 19.3531C99.4734 17.9625 99.7267 16.5433 99.4049 15.0955C99.083 13.6477 98.2401 12.5175 96.8759 11.7049C95.4986 10.8844 94.0994 10.6879 92.6784 11.1154C91.2653 11.5296 90.1485 12.4254 89.3279 13.8028C88.4995 15.1934 88.2396 16.6086 88.5482 18.0485C88.87 19.4963 89.713 20.6265 91.0771 21.4391Z" fill="#DA4E00"/>
<path d="M109.082 38.1084L106.933 39.8992L98.4526 29.7185L111.067 19.2109L113.05 21.5918L102.586 30.3086L109.082 38.1084Z" fill="#DA4E00"/>
<path d="M107.435 41.8184L122.066 34.3711L123.482 37.1531L108.851 44.6004L107.435 41.8184Z" fill="#DA4E00"/>
<path d="M120.138 51.0724C120.818 50.932 121.383 50.9254 121.834 51.0525C122.304 51.1916 122.668 51.4312 122.927 51.7712C123.189 52.1263 123.369 52.5378 123.466 53.0058C123.562 53.4738 123.559 53.9152 123.456 54.3301C123.353 54.7449 123.113 55.1093 122.737 55.4231C122.376 55.7337 121.856 55.9593 121.177 56.0996C120.513 56.2369 119.946 56.2359 119.476 56.0968C119.022 55.9546 118.658 55.715 118.383 55.3782C118.124 55.0382 117.946 54.6342 117.85 54.1662C117.753 53.6982 117.755 53.2492 117.855 52.8193C117.973 52.4013 118.213 52.037 118.573 51.7263C118.952 51.4276 119.474 51.2096 120.138 51.0724Z" fill="#DA4E00"/>
</svg>
