<svg width="550" height="550" viewBox="0 0 550 550" fill="none" xmlns="http://www.w3.org/2000/svg">
<path fill-rule="evenodd" clip-rule="evenodd" d="M275 550C426.878 550 550 426.878 550 275C550 123.122 426.878 0 275 0C123.122 0 0 123.122 0 275C0 426.878 123.122 550 275 550ZM334.801 172.928H424.105V194.611H334.801V172.928ZM207.852 385.388H101V165H204.873C242.648 165 275.344 175.67 275.344 219.508C275.344 241.662 265.016 252.568 245.262 261.974C272.344 269.666 285.435 293.556 285.435 321.217C285.457 365.998 247.918 385.153 207.852 385.388ZM458.772 312.497H343.757C343.757 337.973 357.191 353.014 382.903 353.014C396.208 353.014 413.328 345.9 417.57 332.23H456.244C444.31 368.847 419.627 385.945 381.531 385.945C331.266 385.945 299.919 351.857 299.919 302.148C299.919 254.175 332.873 217.687 381.531 217.687C431.454 217.687 459.115 257.046 459.115 304.227C459.115 306.066 459.011 307.952 458.909 309.785C458.858 310.707 458.808 311.615 458.772 312.497ZM228.186 224.115C228.186 203.803 212.459 198.982 194.997 198.982H149.552V250.404H198.553C215.887 250.404 228.186 242.819 228.186 224.115ZM343.65 284.836C345.021 263.838 359.034 250.747 380.031 250.747C402.078 250.747 413.091 263.603 415.041 284.836H343.65ZM202.238 287.021H149.444V347.743H201.21C220.964 347.743 237.034 340.737 237.034 318.582C237.012 295.977 223.578 287.129 202.238 287.021Z" fill="black"/>
</svg>
