<svg width="550" height="550" viewBox="0 0 550 550" fill="none" xmlns="http://www.w3.org/2000/svg">
<path fill-rule="evenodd" clip-rule="evenodd" d="M275 550C426.878 550 550 426.878 550 275C550 123.122 426.878 0 275 0C123.122 0 0 123.122 0 275C0 426.878 123.122 550 275 550ZM343.184 139.155C325.527 138.345 320.223 138.178 275.5 138.178C230.777 138.178 225.473 138.345 207.816 139.155C189.545 139.993 170.854 144.054 157.454 157.454C144.278 170.631 139.979 189.726 139.155 207.816C138.345 225.473 138.178 230.777 138.178 275.5C138.178 320.223 138.345 325.527 139.155 343.184C139.993 361.386 144.096 380.188 157.454 393.546C170.561 406.666 189.796 411.021 207.816 411.845C225.473 412.655 230.777 412.822 275.5 412.822C320.223 412.822 325.527 412.655 343.184 411.845C361.511 411.007 380.118 406.974 393.546 393.546C406.764 380.327 411.021 361.344 411.845 343.184C412.655 325.527 412.822 320.223 412.822 275.5C412.822 230.777 412.655 225.473 411.845 207.816C411.007 189.503 406.974 170.882 393.546 157.454C380.243 144.152 361.441 139.993 343.184 139.155ZM206.434 109.005C224.301 108.195 230.01 108 275.5 108C320.99 108 326.699 108.195 344.566 109.005C370.375 110.177 396.142 117.366 414.888 136.112C433.592 154.816 440.809 180.541 441.995 206.434C442.805 224.301 443 230.01 443 275.5C443 320.99 442.805 326.699 441.995 344.566C440.809 370.445 433.69 396.086 414.888 414.888C396.184 433.592 370.445 440.809 344.566 441.995C326.699 442.805 320.99 443 275.5 443C230.01 443 224.301 442.805 206.434 441.995C180.583 440.809 154.886 433.662 136.112 414.888C117.422 396.212 110.191 370.431 109.005 344.566C108.195 326.699 108 320.99 108 275.5C108 230.01 108.195 224.301 109.005 206.434C110.191 180.555 117.324 154.9 136.112 136.112C154.83 117.394 180.541 110.191 206.434 109.005ZM275.5 189.489C228 189.489 189.489 228 189.489 275.5C189.489 323 228 361.511 275.5 361.511C323 361.511 361.511 323 361.511 275.5C361.511 228 323 189.489 275.5 189.489ZM275.5 331.334C244.666 331.334 219.667 306.334 219.667 275.5C219.667 244.666 244.666 219.667 275.5 219.667C306.334 219.667 331.333 244.666 331.333 275.5C331.333 306.334 306.334 331.334 275.5 331.334ZM385.017 186.083C385.017 197.184 376.017 206.183 364.917 206.183C353.816 206.183 344.816 197.184 344.816 186.083C344.816 174.982 353.816 165.983 364.917 165.983C376.017 165.983 385.017 174.982 385.017 186.083Z" fill="black"/>
</svg>
